# xmcd CD database file
#
# Track frame offsets:
#	150
#	17449
#	28274
#	46107
#	58503
#	69647
#	92242
#	109372
#
# Disc length: 1568 seconds
#
# Revision: 0
# Processed by: cddbd v1.5.1PL0 Copyright (c) Steve Scherf et al.
# Submitted via: CDex 1.51
#
DISCID=66061e08
DTITLE=Main Swing - Main Swing
DYEAR=2004
DGENRE=Jazz
TTITLE0=Killing Me Softly
TTITLE1=Caravan
TTITLE2=Stairway To The Stars
TTITLE3=Natural Woman
TTITLE4=Someday My Prince Will Come
TTITLE5=Body and Soul
TTITLE6=Tangerine
TTITLE7=My Little Suede Shoes
EXTD=YEAR: 2004
EXTT0=
EXTT1=
EXTT2=
EXTT3=
EXTT4=
EXTT5=
EXTT6=
EXTT7=
PLAYORDER=
